<svg xmlns:svg="http://www.w3.org/2000/svg" xmlns="http://www.w3.org/2000/svg" version="1.1" width="179.2" height="84.1"><style>.s0{fill:#000;}.s1{fill:#fff;}</style><g transform="translate(-91.126003,-200.9978)"><g transform="matrix(1.25,0,0,-1.25,-33.887747,1036.5628)"><g transform="scale(0.1,0.1)"><path d="m1292.6 6684.5 166.1 0 0-146.6-166.1 0 0 146.6zm10.1-141.2-5.5 4.7 156 0-4.7-4.7 0 136.5 4.7-5.5-156 0 5.5 5.5 0-136.5M1643.6 6392l166.1 0 0-146.6-166.1 0 0 146.6zm10.1-141.2-5.5 4.7 156 0-4.7-4.7 0 136.5 4.7-5.5-156 0 5.5 5.5 0-136.5M1685.7 6611.2l0.8 3.1 0 3.9 2.3 5.5c0 0.8 0 0.8 0 1.6l3.1 4.7 0 0.8 3.9 3.9c0 0.8 0 0.8 0.8 0.8l3.9 3.9c0.8 0 0.8 0 0.8 0.8l5.5 2.3c0 0 0 0 0.8 0.8l5.5 1.6c0 0 0 0 0.8 0l2.3 0.8 7 0 3.9-0.8c0 0 0 0 0.8 0l5.5-1.6c0-0.8 0-0.8 0.8-0.8l4.7-2.3c0.8-0.8 0.8-0.8 0.8-0.8l4.7-3.9c0 0 0 0 0.8-0.8l3.1-3.9 0.8-0.8 2.4-4.7c0-0.8 0.8-0.8 0.8-1.5l1.6-5.5 0 0 0.8-3.1 0-7-0.8-3.1c0-0.8 0-0.8 0-0.8l-1.6-5.5c0-0.8-0.8-0.8-0.8-1.6l-2.3-4.7-0.8-0.8-3.1-3.9c-0.8-0.8-0.8-0.8-0.8-0.8l-4.7-3.9c0 0-0.8 0-0.8-0.8l-4.7-2.3c-0.8 0-0.8 0-0.8-0.8l-5.5-1.6c-0.8 0-0.8 0-0.8 0l-3.1 0-3.9-0.8-3.1 0-3.1 0.8c-0.8 0-0.8 0-0.8 0l-5.5 2.3c-0.8 0-0.8 0-0.8 0l-5.5 2.4c0 0.8 0 0.8-0.8 0.8l-3.9 3.9c-0.8 0-0.8 0-0.8 0.8l-3.9 3.9 0 0.8-3.1 4.7c0 0.8 0 0.8 0 1.6l-2.3 5.5c0 0 0 0 0 0.8l0 2.3-0.8 3.9zm10.1-2.3 0.8-3.1-0.8 0.8 2.3-5.5-0.8 0.8 3.1-4.7-0.8 0.8 3.1-4.7 0 0.8 3.9-3.1-0.8 0 5.5-2.3-1.6 0 5.5-1.6 10.1 0-0.8 0 5.5 1.6-0.8 0 4.7 2.3-0.8 0 4.7 3.1-0.8-0.8 3.1 4.7 0-0.8 2.3 4.7 0-0.8 1.6 5.5 0-0.8 0 10.9 0-0.8-1.6 5.5 0-0.8-2.3 4.7 0-0.8-3.1 4.7 0.8-0.8-4.7 3.1 0.8 0-4.7 2.4 0.8 0-5.5 1.6 0.8 0-10.1 0 0 0-5.5-1.6 1.6 0-5.5-2.3 0.8 0-3.9-3.1 0 0.8-3.1-4.7 0.8 0.8-3.1-4.7 0.8 0.8-2.3-5.5 0.8 0.8-0.8-2.3 0-5.4M1447 6607.3l236.3 0 0 9.4-236.3 0 0-9.4zM1000.1 6611.2l0 3.1 0.8 3.9 0 0 1.6 5.5c0.8 0.8 0.8 0.8 0.8 1.6l2.3 4.7c0.8 0 0.8 0.8 0.8 0.8l3.9 3.9c0 0.8 0 0.8 0.8 0.8l3.9 3.9c0 0 0.8 0 0.8 0.8l4.7 2.3c0.8 0 0.8 0 1.6 0.8l5.5 1.6 0 0 3.1 0.8 7 0 3.1-0.8c0.8 0 0.8 0 0.8 0l5.5-1.6c0.8-0.8 0.8-0.8 1.6-0.8l4.7-2.3c0-0.8 0.8-0.8 0.8-0.8l3.9-3.9c0.8 0 0.8 0 0.8-0.8l3.9-3.9c0 0 0-0.8 0.8-0.8l2.3-4.7c0-0.8 0-0.8 0-1.5l2.3-5.5 0-3.1 0.8-3.9 0-3.1-0.8-3.1c0-0.8 0-0.8 0-0.8l-1.6-5.5c-0.8-0.8-0.8-0.8-0.8-1.6l-2.3-4.7c-0.8 0-0.8-0.8-0.8-0.8l-3.9-3.9c0-0.8 0-0.8-0.8-0.8l-3.9-3.9c0 0-0.8 0-0.8-0.8l-4.7-2.3c-0.8 0-0.8 0-1.6-0.8l-5.5-1.6c0 0 0 0-0.8 0l-2.3 0-3.9-0.8-3.1 0-3.9 0.8 0 0-5.5 2.3c-0.8 0-0.8 0-1.6 0l-4.7 2.4c0 0.8-0.8 0.8-0.8 0.8l-3.9 3.9c-0.8 0-0.8 0-0.8 0.8l-3.9 3.9c0 0 0 0.8-0.8 0.8l-2.3 4.7c0 0.8 0 0.8-0.8 1.6l-1.6 5.5c0 0 0 0 0 0.8l-0.8 2.3 0 3.9zm10.1-2.3 0-3.1 0 0.8 1.6-5.5 0 0.8 2.3-4.7 0 0.8 3.1-4.7-0.8 0.8 4.7-3.1-0.8 0 4.7-2.3-0.8 0 5.5-1.6-0.8 0 10.9 0-0.8 0 5.5 1.6-0.8 0 4.7 2.3-0.8 0 4.7 3.1-0.8-0.8 3.1 4.7 0-0.8 2.3 4.7 0-0.8 1.6 5.5 0-0.8 0 10.9 0-0.8-1.6 5.5 0-0.8-2.3 4.7 0-0.8-3.1 4.7 0.8-0.8-4.7 3.1 0.8 0-4.7 2.4 0.8 0-5.4 1.6 0.8 0-10.9 0 0.8 0-5.5-1.6 0.8 0-4.7-2.3 0.8 0-4.7-3.1 0.8 0.8-3.1-4.7 0 0.8-2.3-4.7 0 0.8-1.6-5.5 0 0.8 0-7.8M1063.3 6607.3l234 0 0 9.4-234 0 0-9.4zM1411.9 6314l236.3 0 0 10.1-236.3 0 0-10.1zM1351.1 6318.7l0 3.1 0.8 3.9 0 0 1.6 5.5c0.8 0.8 0.8 0.8 0.8 1.6l2.3 4.7c0.8 0 0.8 0.8 0.8 0.8l3.9 3.9c0 0.8 0 0.8 0.8 0.8l3.9 3.9c0 0 0.8 0 0.8 0.8l4.7 2.4c0.8 0 0.8 0 1.6 0.8l5.5 1.6 0 0 3.1 0.8 7 0 3.1-0.8c0.8 0 0.8 0 0.8 0l5.5-1.6c0.8-0.8 0.8-0.8 1.6-0.8l4.7-2.3c0-0.8 0.8-0.8 0.8-0.8l3.9-3.9c0.8 0 0.8 0 0.8-0.8l3.9-3.9c0 0 0-0.8 0.8-0.8l2.3-4.7c0-0.8 0-0.8 0-1.6l2.3-5.4 0-3.1 0.8-3.9 0-3.1-0.8-3.1c0-0.8 0-0.8 0-0.8l-1.6-5.5c-0.8-0.8-0.8-0.8-0.8-1.6l-2.3-4.7c-0.8 0-0.8-0.8-0.8-0.8l-3.9-3.9c0-0.8 0-0.8-0.8-0.8l-3.9-3.9c0 0-0.8 0-0.8-0.8l-4.7-2.3c-0.8 0-0.8 0-1.6-0.8l-5.5-1.6c0 0 0 0-0.8 0l-2.3 0-3.9-0.8-3.1 0-3.9 0.8 0 0-5.4 2.4c-0.8 0-0.8 0-1.6 0l-4.7 2.3c0 0.8-0.8 0.8-0.8 0.8l-3.9 3.9c-0.8 0-0.8 0-0.8 0.8l-3.9 3.9c0 0 0 0.8-0.8 0.8l-2.3 4.7c0 0.8 0 0.8-0.8 1.6l-1.6 5.5c0 0 0 0 0 0.8l-0.8 2.3 0 3.9zm10.1-2.3 0-3.1 0 0.8 1.6-5.5 0 0.8 2.3-4.7 0 0.8 3.1-4.7-0.8 0.8 4.7-3.1-0.8 0 4.7-2.3-0.8 0 5.5-1.6-0.8 0 10.9 0-0.8 0 5.5 1.6-0.8 0 4.7 2.4-0.8 0 4.7 3.1-0.8-0.8 3.1 4.7 0-0.8 2.3 4.7 0-0.8 1.6 5.5 0-0.8 0 10.9 0-0.8-1.6 5.5 0-0.8-2.3 4.7 0-0.8-3.1 4.7 0.8-0.8-4.7 3.1 0.8 0-4.7 2.4 0.8 0-5.4 1.6 0.8 0-10.9 0 0.8 0-5.5-1.6 0.8 0-4.7-2.3 0.8 0-4.7-3.1 0.8 0.8-3.1-4.7 0 0.8-2.3-4.7 0 0.8-1.6-5.5 0 0.8 0-7.8M1714.6 6387.4l10.1 0 0 195-10.1 0 0-195zM1975.1 6684.5l166.1 0 0-146.6-166.1 0 0 146.6zm10.1-141.2-5.5 4.7 156 0-4.7-4.7 0 136.5 4.7-5.5-156 0 5.5 5.5 0-136.5M2365.1 6611.2l0 3.1 0.8 3.9 0 0 1.5 5.5c0.8 0.8 0.8 0.8 0.8 1.6l2.3 4.7c0.8 0 0.8 0.8 0.8 0.8l3.9 3.9c0 0.8 0 0.8 0.8 0.8l3.9 3.9c0 0 0.8 0 0.8 0.8l4.7 2.3c0.8 0 0.8 0 1.6 0.8l5.5 1.6 0 0 3.1 0.8 7 0 3.1-0.8c0.8 0 0.8 0 0.8 0l5.5-1.6c0.8-0.8 0.8-0.8 1.6-0.8l4.7-2.3c0-0.8 0.8-0.8 0.8-0.8l3.9-3.9c0.8 0 0.8 0 0.8-0.8l3.9-3.9c0 0 0-0.8 0.8-0.8l2.3-4.7c0-0.8 0-0.8 0-1.5l2.3-5.5 0-3.1 0.8-3.9 0-3.1-0.8-3.1c0-0.8 0-0.8 0-0.8l-1.5-5.5c-0.8-0.8-0.8-0.8-0.8-1.6l-2.3-4.7c-0.8 0-0.8-0.8-0.8-0.8l-3.9-3.9c0-0.8 0-0.8-0.8-0.8l-3.9-3.9c0 0-0.8 0-0.8-0.8l-4.7-2.3c-0.8 0-0.8 0-1.5-0.8l-5.5-1.6c0 0 0 0-0.8 0l-2.3 0-3.9-0.8-3.1 0-3.9 0.8 0 0-5.5 2.3c-0.8 0-0.8 0-1.5 0l-4.7 2.4c0 0.8-0.8 0.8-0.8 0.8l-3.9 3.9c-0.8 0-0.8 0-0.8 0.8l-3.9 3.9c0 0 0 0.8-0.8 0.8l-2.3 4.7c0 0.8 0 0.8-0.8 1.6l-1.5 5.5c0 0 0 0 0 0.8l-0.8 2.3 0 3.9zm10.1-2.3 0-3.1 0 0.8 1.6-5.5 0 0.8 2.3-4.7 0 0.8 3.1-4.7-0.8 0.8 4.7-3.1-0.8 0 4.7-2.3-0.8 0 5.5-1.6-0.8 0 10.9 0-0.8 0 5.5 1.6-0.8 0 4.7 2.3-0.8 0 4.7 3.1-0.8-0.8 3.1 4.7 0-0.8 2.3 4.7 0-0.8 1.6 5.5 0-0.8 0 10.9 0-0.8-1.6 5.5 0-0.8-2.3 4.7 0-0.8-3.1 4.7 0.8-0.8-4.7 3.1 0.8 0-4.7 2.4 0.8 0-5.5 1.6 0.8 0-10.9 0 0.8 0-5.5-1.6 0.8 0-4.7-2.3 0.8 0-4.7-3.1 0.8 0.8-3.1-4.7 0 0.8-2.3-4.7 0 0.8-1.6-5.5 0 0.8 0-7.8M2135.8 6607.3l234 0 0 9.4-234 0 0-9.4zM1745.8 6606.5l234 0 0 9.4-234 0 0-9.4zM1721.6 6055.9l10.1 0 0 195-10.1 0 0-195zM1804.3 6312.5l234 0 0 9.4-234 0 0-9.4zM2055.4 6348.4l10.1 0 0 195-10.1 0 0-195z" fill="#000"/><path d="m2032 6318.7c0 16.4 12.5 29.6 28.9 29.6l0 0c16.4 0 29.6-13.3 29.6-29.6l0 0c0-16.4-13.2-28.9-29.6-28.9l0 0c-16.4 0-28.9 12.5-28.9 28.9l0 0" fill="#fff"/><path d="m2026.6 6318.7 0.8 3.1 0 3.9 2.3 5.5c0 0.8 0 0.8 0 1.6l3.1 4.7 0 0.8 3.9 4.7c0 0 0 0 0.8 0l3.9 3.9c0 0 0.8 0 0.8 0.8l5.5 2.4c0 0 0 0 0.8 0.8l5.5 1.6c0 0 0 0 0.8 0l2.3 0.8 7 0 3.9-0.8c0 0 0 0 0.8 0l5.5-1.6c0-0.8 0-0.8 0.8-0.8l4.7-2.3c0-0.8 0.8-0.8 0.8-0.8l4.7-3.9c0 0 0 0 0-0.8l3.9-3.9 0.8-0.8 2.3-4.7c0-0.8 0.8-0.8 0.8-1.6l1.6-5.4 0 0 0.8-3.1 0-7-0.8-3.1c0-0.8 0-0.8 0-0.8l-1.5-5.5c0-0.8-0.8-0.8-0.8-1.6l-2.3-4.7-0.8-0.8-3.9-3.9c0-0.8 0-0.8 0-0.8l-4.7-3.9c0 0-0.8 0-0.8-0.8l-4.7-2.3c-0.8 0-0.8 0-0.8 0l-5.5-2.3c-0.8 0-0.8 0-0.8 0l-3.1 0-3.9-0.8-3.1 0-3.1 0.8c-0.8 0-0.8 0-0.8 0l-5.5 1.6c-0.8 0.8-0.8 0.8-0.8 0.8l-5.5 2.3c0 0.8-0.8 0.8-0.8 0.8l-3.9 3.9c-0.8 0-0.8 0-0.8 0l-3.9 4.7 0 0.8-3.1 4.7c0 0.8 0 0.8 0 1.6l-2.3 5.5c0 0 0 0 0 0.8l0 2.3-0.8 3.9zm10.1-2.3 0.8-3.1-0.8 0.8 2.3-5.5-0.8 0.8 3.1-4.7-0.8 0.8 3.1-4.7 0 0.8 3.9-3.1-0.8 0 4.7-2.3-0.8 0 5.5-1.6 10.2 0-0.8 0 5.5 1.6-0.8 0 4.7 2.4-0.8 0 4.7 3.1-0.8-0.8 3.1 4.7 0-0.8 2.3 4.7 0-0.8 1.6 5.5 0-0.8 0 10.9 0-0.8-1.6 5.5 0-0.8-2.3 4.7 0-0.8-3.1 4.7 0.8-0.8-4.7 3.1 0.8 0-4.7 2.4 0.8 0-5.5 1.6 0.8 0-10.1 0 0 0-5.4-1.6 1.6 0-5.5-2.3 0.8 0-3.9-3.1 0 0.8-3.1-4.7 0.8 0.8-3.1-4.7 0.8 0.8-2.3-5.5 0.8 0.8-0.8-2.3 0-5.5" fill="#000"/><path d="m1699 6045.7c0 16.4 12.5 29.6 28.9 29.6l0 0c16.4 0 29.6-13.3 29.6-29.6l0 0c0-16.4-13.3-28.9-29.6-28.9l0 0c-16.4 0-28.9 12.5-28.9 28.9l0 0" fill="#fff"/><path d="m1693.5 6045.7 0.8 3.1 0 3.9 2.3 5.5c0 0.8 0 0.8 0 1.6l3.1 4.7 0 0.8 3.9 3.9c0 0.8 0 0.8 0.8 0.8l3.9 3.9c0.8 0 0.8 0 0.8 0.8l5.5 2.4c0 0 0 0 0.8 0.8l5.5 1.6c0 0 0 0 0.8 0l2.3 0.8 7 0 3.9-0.8c0 0 0 0 0.8 0l5.5-1.6c0-0.8 0-0.8 0.8-0.8l4.7-2.3c0.8-0.8 0.8-0.8 0.8-0.8l4.7-3.9c0 0 0 0 0.8-0.8l3.1-3.9 0.8-0.8 2.3-4.7c0-0.8 0.8-0.8 0.8-1.6l1.6-5.5 0 0 0.8-3.1 0-7-0.8-3.1c0-0.8 0-0.8 0-0.8l-1.6-5.4c0-0.8-0.8-0.8-0.8-1.6l-2.3-4.7-0.8-0.8-3.1-3.9c-0.8-0.8-0.8-0.8-0.8-0.8l-4.7-3.9c0 0-0.8 0-0.8-0.8l-4.7-2.3c-0.8 0-0.8 0-0.8-0.8l-5.5-1.6c-0.8 0-0.8 0-0.8 0l-3.1 0-3.9-0.8-3.1 0-3.1 0.8c-0.8 0-0.8 0-0.8 0l-5.5 2.4c-0.8 0-0.8 0-0.8 0l-5.5 2.3c0 0.8 0 0.8-0.8 0.8l-3.9 3.9c-0.8 0-0.8 0-0.8 0.8l-3.9 3.9 0 0.8-3.1 4.7c0 0.8 0 0.8 0 1.6l-2.3 5.5c0 0 0 0 0 0.8l0 2.3-0.8 3.9zm10.1-2.3 0.8-3.1-0.8 0.8 2.3-5.5-0.8 0.8 3.1-4.7-0.8 0.8 3.1-4.7 0 0.8 3.9-3.1-0.8 0 5.5-2.3-1.6 0 5.5-1.6 10.1 0-0.8 0 5.5 1.6-0.8 0 4.7 2.3-0.8 0 4.7 3.1-0.8-0.8 3.1 4.7 0-0.8 2.3 4.7 0-0.8 1.6 5.5 0-0.8 0 10.9 0-0.8-1.6 5.5 0-0.8-2.3 4.7 0-0.8-3.1 4.7 0.8-0.8-4.7 3.1 0.8 0-4.7 2.3 0.8 0-5.5 1.6 0.8 0-10.1 0 0 0-5.5-1.6 1.6 0-5.5-2.3 0.8 0-3.9-3.1 0 0.8-3.1-4.7 0.8 0.8-3.1-4.7 0.8 0.8-2.3-5.5 0.8 0.8-0.8-2.3 0-5.5M1385.4 6347.6l9.4 0 0 195-9.4 0 0-195z" fill="#000"/></g></g></g></svg>